<svg xmlns="http://www.w3.org/2000/svg" xmlns:xlink="http://www.w3.org/1999/xlink" width="500" zoomAndPan="magnify" viewBox="0 0 375 374.999991" height="500" preserveAspectRatio="xMidYMid meet" version="1.0"><defs><g/><clipPath id="5822fb9b31"><path d="M 0.921875 27 L 303.800781 27 L 303.800781 324 L 0.921875 324 Z M 0.921875 27 " clip-rule="nonzero"/></clipPath><clipPath id="d39b0a94f4"><rect x="0" width="304" y="0" height="297"/></clipPath><clipPath id="7b30f07bcf"><rect x="0" width="50" y="0" height="238"/></clipPath><clipPath id="cf429ec6b2"><path d="M 51 0 L 303.800781 0 L 303.800781 364.558594 L 51 364.558594 Z M 51 0 " clip-rule="nonzero"/></clipPath><clipPath id="890f579772"><rect x="0" width="304" y="0" height="365"/></clipPath></defs><rect x="-37.5" width="450" fill="#ffffff" y="-37.499999" height="449.999989" fill-opacity="1"/><rect x="-37.5" width="450" fill="#2b2728" y="-37.499999" height="449.999989" fill-opacity="1"/><g transform="matrix(1, 0, 0, 1, 55, 0)"><g clip-path="url(#890f579772)"><g clip-path="url(#5822fb9b31)"><g transform="matrix(1, 0, 0, 1, 0, 27)"><g clip-path="url(#d39b0a94f4)"><g fill="#ffffff" fill-opacity="1"><g transform="translate(1.875959, 196.270589)"><g><path d="M 99.296875 -21.90625 L 107.6875 -21.90625 C 109.226562 -21.90625 110 -21.132812 110 -19.59375 L 110 -2.3125 C 110 -0.769531 109.226562 0 107.6875 0 L 26.671875 0 L 26.671875 46.4375 C 26.671875 46.988281 26.398438 47.425781 25.859375 47.75 L 11.03125 54.34375 C 10.375 54.664062 9.742188 54.632812 9.140625 54.25 C 8.535156 53.875 8.234375 53.300781 8.234375 52.53125 L 8.234375 -13.171875 C 8.234375 -13.828125 8.453125 -14.265625 8.890625 -14.484375 L 21.234375 -21.90625 C 21.347656 -22.007812 21.570312 -22.0625 21.90625 -22.0625 L 33.921875 -22.0625 C 36.117188 -30.1875 38.671875 -37.515625 41.578125 -44.046875 C 44.484375 -50.578125 47.910156 -55.765625 51.859375 -59.609375 C 55.816406 -63.453125 60.320312 -65.375 65.375 -65.375 C 71.1875 -65.375 76.617188 -63.125 81.671875 -58.625 C 84.640625 -55.875 87.382812 -52.410156 89.90625 -48.234375 C 92.4375 -44.066406 94.523438 -39.707031 96.171875 -35.15625 C 97.816406 -30.601562 98.859375 -26.1875 99.296875 -21.90625 Z M 44.625 -22.0625 L 80.84375 -22.0625 C 78.101562 -29.09375 74.945312 -34.414062 71.375 -38.03125 C 67.8125 -41.65625 64.164062 -43.46875 60.4375 -43.46875 C 56.8125 -43.46875 53.539062 -41.628906 50.625 -37.953125 C 47.71875 -34.273438 45.71875 -28.976562 44.625 -22.0625 Z M 44.625 -22.0625 "/></g></g></g><g fill="#ffffff" fill-opacity="1"><g transform="translate(109.550627, 196.270589)"><g><path d="M 42.15625 -21.90625 L 50.390625 -21.90625 C 51.921875 -21.90625 52.6875 -21.132812 52.6875 -19.59375 L 52.6875 -2.3125 C 52.6875 -0.769531 51.921875 0 50.390625 0 L 0 0 C -1.539062 0 -2.3125 -0.769531 -2.3125 -2.3125 L -2.3125 -19.59375 C -2.3125 -21.132812 -1.539062 -21.90625 0 -21.90625 L 23.71875 -21.90625 L 23.71875 -94.84375 C 23.71875 -96.164062 24.484375 -96.9375 26.015625 -97.15625 L 39.84375 -99.453125 C 40.507812 -99.566406 41.0625 -99.375 41.5 -98.875 C 41.9375 -98.382812 42.15625 -97.8125 42.15625 -97.15625 Z M 42.15625 -21.90625 "/></g></g></g><g fill="#ffffff" fill-opacity="1"><g transform="translate(159.93052, 196.270589)"><g><path d="M 83.15625 -13.171875 L 76.078125 7.078125 L 27.171875 -12.84375 L 22.71875 0 L 0 0 C -1.539062 0 -2.3125 -0.769531 -2.3125 -2.3125 L -2.3125 -19.59375 C -2.3125 -21.132812 -1.539062 -21.90625 0 -21.90625 L 19.265625 -21.90625 L 29.796875 -46.109375 C 33.859375 -53.242188 38.222656 -58.457031 42.890625 -61.75 C 47.554688 -65.039062 52.191406 -66.710938 56.796875 -66.765625 C 61.410156 -66.828125 65.691406 -65.539062 69.640625 -62.90625 C 73.597656 -60.269531 76.894531 -56.535156 79.53125 -51.703125 C 82.164062 -46.867188 83.867188 -41.160156 84.640625 -34.578125 C 85.410156 -27.992188 84.914062 -20.859375 83.15625 -13.171875 Z M 34.578125 -32.9375 L 72.453125 -17.453125 C 70.804688 -26.015625 68.253906 -32.710938 64.796875 -37.546875 C 61.335938 -42.378906 57.300781 -44.796875 52.6875 -44.796875 C 46.875 -44.796875 40.835938 -40.84375 34.578125 -32.9375 Z M 34.578125 -32.9375 "/></g></g></g><g fill="#ffffff" fill-opacity="1"><g transform="translate(253.14809, 196.270589)"><g/></g></g><g fill="#ffffff" fill-opacity="1"><g transform="translate(269.612111, 196.270589)"><g/></g></g><g fill="#ffffff" fill-opacity="1"><g transform="translate(286.076133, 196.270589)"><g/></g></g></g></g></g><path stroke-linecap="butt" transform="matrix(0.951246, 0, 0, 0.951246, 40.224078, 239.542484)" fill="none" stroke-linejoin="miter" d="M -0.00149437 17.001237 L 204.688907 17.001237 " stroke="#f77931" stroke-width="34" stroke-opacity="1" stroke-miterlimit="4"/><g transform="matrix(1, 0, 0, 1, 191, 0)"><g clip-path="url(#7b30f07bcf)"><g fill="#e6f2e6" fill-opacity="1"><g transform="translate(3.308954, 137.379624)"><g><path d="M 2.796875 -4.9375 C 2.140625 -4.9375 1.703125 -5.265625 1.484375 -5.921875 L 0.328125 -9.390625 C -0.00390625 -10.265625 0.378906 -10.8125 1.484375 -11.03125 C 3.234375 -11.363281 5.425781 -11.882812 8.0625 -12.59375 C 10.695312 -13.3125 13.332031 -14.082031 15.96875 -14.90625 C 18.601562 -15.726562 20.878906 -16.519531 22.796875 -17.28125 C 24.722656 -18.050781 25.796875 -18.65625 26.015625 -19.09375 C 21.953125 -20.96875 19.835938 -23.796875 19.671875 -27.578125 C 19.515625 -31.367188 21.351562 -34.851562 25.1875 -38.03125 C 27.601562 -40.34375 30.265625 -41.988281 33.171875 -42.96875 C 36.085938 -43.957031 38.585938 -44.066406 40.671875 -43.296875 C 42.753906 -42.535156 43.796875 -40.5625 43.796875 -37.375 C 43.796875 -33.3125 42.613281 -29.359375 40.25 -25.515625 C 37.894531 -21.679688 34.738281 -18.222656 30.78125 -15.140625 C 26.832031 -12.066406 22.441406 -9.625 17.609375 -7.8125 C 12.785156 -6.007812 7.847656 -5.050781 2.796875 -4.9375 Z M 31.953125 -24.203125 C 33.265625 -25.304688 34.46875 -26.734375 35.5625 -28.484375 C 36.664062 -30.242188 37.21875 -31.78125 37.21875 -33.09375 C 37.320312 -34.414062 36.632812 -35.320312 35.15625 -35.8125 C 33.675781 -36.3125 32.082031 -36.367188 30.375 -35.984375 C 28.675781 -35.597656 27.550781 -34.800781 27 -33.59375 C 26.78125 -32.820312 26.945312 -31.773438 27.5 -30.453125 C 28.050781 -29.140625 28.765625 -27.90625 29.640625 -26.75 C 30.515625 -25.601562 31.285156 -24.753906 31.953125 -24.203125 Z M 31.953125 -24.203125 "/></g></g></g></g></g><g fill="#ffffff" fill-opacity="1"><g transform="translate(113.777424, 265.488705)"><g><path d="M 42.3125 -9.875 L 1.640625 -4.609375 C 1.316406 -4.503906 1.015625 -4.585938 0.734375 -4.859375 C 0.460938 -5.128906 0.328125 -5.429688 0.328125 -5.765625 L 0 -9.21875 C 0 -9.875 0.382812 -10.3125 1.15625 -10.53125 L 40.84375 -16.46875 C 41.382812 -16.570312 41.898438 -16.515625 42.390625 -16.296875 C 42.890625 -16.078125 43.140625 -15.582031 43.140625 -14.8125 L 42.984375 -10.875 C 42.984375 -10.320312 42.757812 -9.988281 42.3125 -9.875 Z M 42.3125 -9.875 "/></g></g></g><g clip-path="url(#cf429ec6b2)"><path stroke-linecap="butt" transform="matrix(0.303315, -0.901592, 0.901592, 0.303315, 219.606011, 286.230509)" fill="none" stroke-linejoin="miter" d="M 0.000324587 17.000459 L 123.358969 17.001992 " stroke="#272727" stroke-width="34" stroke-opacity="1" stroke-miterlimit="4"/></g></g></g></svg>

